<?xml version="1.0" encoding="UTF-8" standalone="no"?>
<!-- Created with Inkscape (http://www.inkscape.org/) -->

<svg width="29.749962mm" height="29.789101mm" viewBox="0 0 29.749962 29.789101" version="1.1" id="svg5"
  xml:space="preserve" xmlns:inkscape="http://www.inkscape.org/namespaces/inkscape"
  xmlns:sodipodi="http://sodipodi.sourceforge.net/DTD/sodipodi-0.dtd" xmlns="http://www.w3.org/2000/svg"
  xmlns:svg="http://www.w3.org/2000/svg">

  <g inkscape:label="Layer 1" inkscape:groupmode="layer" id="layer1" transform="translate(-78.508135,-109.18457)">
    <path style="fill:#fff;stroke-width:0.0846667"
      d="m 91.348334,138.84633 c -5.36598,-0.73165 -9.91596,-4.34917 -11.88593,-9.45008 -1.28175,-3.31886 -1.27164,-7.42105 0.0264,-10.69787 1.32443,-3.34354 3.67468,-6.01912 6.77996,-7.71849 3.28999,-1.80044 7.22557,-2.26902 10.95717,-1.30458 5.106626,1.31982 9.265976,5.46484 10.563976,10.52756 0.40343,1.57354 0.46819,2.10912 0.46819,3.87185 0,1.72269 -0.0628,2.26327 -0.43728,3.76691 -1.14205,4.58507 -4.5761,8.423 -9.099856,10.17008 -2.19664,0.84834 -4.96964,1.16226 -7.3726,0.83462 z m 1.37373,-1.38444 c 0,-0.0411 -0.87971,-2.41107 -1.95491,-5.26649 l -1.95492,-5.19167 0.26007,-0.21567 c 0.14304,-0.11862 3.15169,-2.67313 6.68589,-5.67668 4.551306,-3.86795 6.402586,-5.49008 6.346226,-5.5607 -0.0608,-0.0761 -0.17345,-0.0724 -0.47647,0.0159 -0.21829,0.0636 -4.892686,1.35914 -10.387556,2.87898 -5.49487,1.51985 -10.02877,2.80113 -10.07533,2.84728 -0.0563,0.0558 -0.0384,0.11812 0.0536,0.18611 0.076,0.0562 1.74265,0.92041 3.70363,1.92047 l 3.56542,1.81828 -0.4863,0.44162 c -0.26746,0.24289 -0.55226,0.4643 -0.63287,0.49203 -0.0939,0.0323 -1.43089,-0.60551 -3.7192,-1.7742 -1.96495,-1.00353 -3.58489,-1.81235 -3.59987,-1.79737 -0.0952,0.0952 -0.1176,1.93772 -0.0331,2.72258 0.41511,3.85757 2.24823,7.18029 5.21278,9.44872 2.04543,1.56514 4.674,2.55324 7.38717,2.77689 0.0582,0.005 0.10584,-0.025 0.10584,-0.0661 z m 3.937,-0.35399 c 4.289356,-1.02297 7.928096,-4.32402 9.380496,-8.50997 1.04171,-3.00229 1.07102,-5.7924 0.092,-8.75655 -0.36724,-1.11189 -1.09793,-2.65498 -1.25128,-2.64249 -0.0574,0.005 -8.611286,18.42468 -9.238376,19.89392 -0.13588,0.31837 -0.24755,0.31672 1.01716,0.0151 z m 2.12638,-10.36006 c 2.961996,-6.42666 4.495026,-9.84392 4.440556,-9.89838 -0.0545,-0.0545 -0.34011,0.13576 -0.82739,0.55101 -0.40932,0.3488 -3.201666,2.71977 -6.205216,5.26881 -3.00355,2.54905 -5.49483,4.68266 -5.53618,4.74136 -0.0594,0.0843 1.78114,5.13643 3.29716,9.05073 0.0324,0.0838 0.11487,0.14093 0.18316,0.127 0.0736,-0.015 1.96674,-4.02315 4.64791,-9.84053 z m -6.95238,-9.99464 c 5.49487,-1.5194 10.065636,-2.78483 10.157266,-2.81207 0.15086,-0.0448 0.13886,-0.0734 -0.127,-0.30176 -0.54728,-0.47016 -1.935146,-1.34047 -2.724856,-1.7087 -4.79985,-2.23814 -10.31884,-1.52005 -14.39282,1.87269 -1.08729,0.90547 -1.96461,1.92673 -2.79996,3.25934 -0.44499,0.70987 -1.0904,2.06997 -1.20663,2.54279 l -0.0565,0.22976 0.57991,-0.15975 c 0.31895,-0.0879 5.07571,-1.4029 10.57058,-2.9223 z"
      id="path1318" />
  </g>
</svg>