<?xml version="1.0" encoding="utf-8"?>
<svg version="1.0" id="Layer_1" xmlns="http://www.w3.org/2000/svg"
  xmlns:xlink="http://www.w3.org/1999/xlink" x="0px" y="0px" width="40px" height="40px" viewBox="0 0 40 40"
  enable-background="new 0 0 40 40" xml:space="preserve">
  <g id="Shape_2_">
    <path fill="#FFFFFF"
      d="M39.8970528,19.9574013c0,11.0046177-8.9155159,19.9165802-19.918354,19.9165802  c-11.0063896,0-19.9272289-8.9119625-19.9272289-19.9165802c0-11.0063906,8.9190645-19.918354,19.9272308-19.918354  C30.9815407,0.0390483,39.8970528,8.9527864,39.8970528,19.9574013L39.8970528,19.9574013z" />
    <path fill="#D71921"
      d="M3.6332955,23.7823944c0.0124245-0.0141983,0.0195246-0.0390472,0.0283985-0.0621223  c0.0266247-0.0709991,0.0585737-0.1402206,0.0816481-0.2165413c0.0283985-0.0656738,0.0514727-0.120697,0.0763226-0.1899204  c0.0124247-0.0354996,0.0248492-0.0656738,0.0354989-0.0905228c0.3709621-0.9194164,0.8395457-1.869009,1.4093008-2.8168259  c0.0745473-0.1686192,0.1526446-0.3194885,0.234292-0.4810085l-2.3997159,0.0106487l0.5839546-1.2797298  c1.9737313-0.5413551,5.2644663-1.6435909,8.4096556-4.6822863l0.0869713-0.0124245h1.6560163l-2.1370239,4.579339  l3.4327297-0.0088749l-0.6318779,1.3684769l-3.4256306,0.0142002c0,0-1.6080942,3.2144146-2.1547747,5.5165081  c-0.4242105,2.5701103-0.0088749,4.4834938,2.2932196,5.2041168c1.4217253,0.4366341,3.1931133,0.3336868,5.1029472-0.2023449  c4.4462204-1.3897743,9.1959534-4.4426689,12.6748333-8.4859772c5.7259502-6.6524687,5.8413219-13.4575806,0.2520428-15.1863699  c-3.5800514-1.1199861-8.631525,0.1224704-13.3049364,2.9055738c5.8306704-3.7593188,12.232873-5.525382,16.6577911-4.1444807  c0.8235741,0.2538166,1.5459709,0.6105785,2.1565514,1.0525384c-3.6474991-4.0202341-8.931488-6.553071-14.788784-6.553071  C8.9385881,0.021296,0,8.9545593,0,19.9804745c0,4.0628319,1.2176073,7.8505497,3.3120346,11.0099411  C2.5186348,29.0415344,2.632231,26.5370979,3.6332955,23.7823944L3.6332955,23.7823944L3.6332955,23.7823944z" />
    <path fill="#D71921"
      d="M36.9577599,9.4266958c1.3400764,3.624423-0.3283653,9.0397577-4.9414291,14.392972  c-6.9204845,8.0457935-17.8541031,12.912674-24.4142723,10.8785934c-0.812922-0.2573662-1.521122-0.6070251-2.1281505-1.0401115  c3.6457233,3.8853378,8.8196659,6.3205528,14.5669174,6.3205528C31.0631866,39.9787025,40,31.0418911,40,20.015976  C40,16.1253128,38.8888893,12.4920139,36.9577599,9.4266958L36.9577599,9.4266958L36.9577599,9.4266958z" />
  </g>
  <rect fill="none" width="40" height="40" />
</svg>